<?xml version="1.0" standalone="no"?>
<!DOCTYPE svg PUBLIC "-//W3C//DTD SVG 20010904//EN"
 "http://www.w3.org/TR/2001/REC-SVG-20010904/DTD/svg10.dtd">
<svg version="1.0" xmlns="http://www.w3.org/2000/svg"
 width="198.000000pt" height="117.000000pt" viewBox="0 0 198.000000 117.000000"
 preserveAspectRatio="xMidYMid meet">

<g transform="translate(0.000000,117.000000) scale(0.100000,-0.100000)"
fill="#000000" stroke="none">
<path d="M945 766 c-67 -29 -67 -31 -66 -282 0 -257 0 -257 80 -275 43 -9 100
5 116 30 12 21 7 482 -6 498 -28 33 -84 46 -124 29z m73 -256 c1 -107 0 -205
-3 -216 -6 -28 -35 -39 -53 -20 -12 11 -14 53 -14 215 1 111 4 206 8 212 3 6
18 9 32 7 l27 -3 3 -195z"/>
<path d="M169 578 c-1 -101 -3 -222 -5 -270 -3 -81 -2 -88 15 -88 11 0 26 -3
35 -6 14 -5 16 6 16 82 0 49 3 106 7 127 5 36 8 39 34 35 28 -4 29 -3 29 34 0
35 -2 39 -20 33 -33 -10 -50 12 -50 65 0 26 3 62 6 79 6 29 9 31 49 31 41 0
41 1 37 30 l-4 30 -74 0 -74 0 -1 -182z"/>
<path d="M405 748 c-3 -11 -25 -176 -41 -308 -3 -25 -12 -83 -20 -129 -18
-106 -18 -101 10 -101 43 0 56 10 56 45 0 29 3 33 33 38 41 6 45 3 53 -38 6
-32 9 -35 40 -35 19 0 34 5 34 10 0 19 -60 485 -65 508 -5 19 -12 22 -51 22
-27 0 -46 -5 -49 -12z m70 -293 l7 -95 -31 0 c-32 0 -32 0 -27 43 3 23 8 74
12 112 11 127 27 103 39 -60z"/>
<path d="M620 495 c0 -146 0 -268 0 -272 0 -5 15 -8 32 -8 l33 0 -4 116 c-2
72 1 119 7 123 11 6 31 -54 51 -152 16 -76 26 -92 61 -92 17 0 30 2 30 5 0 3
-16 59 -36 125 l-36 120 31 29 c31 29 31 30 31 130 0 133 -7 141 -120 141
l-80 0 0 -265z m118 193 c7 -7 12 -39 12 -74 0 -67 -14 -90 -50 -79 -18 6 -20
15 -20 79 0 40 3 76 7 79 10 11 38 8 51 -5z"/>
<path d="M1360 713 c-84 -9 -80 -4 -80 -97 l0 -85 32 10 c40 11 160 11 208 0
l35 -8 0 83 c0 81 -1 84 -25 88 -45 8 -134 13 -170 9z m100 -43 c32 -32 24
-75 -18 -91 -58 -22 -101 60 -50 95 30 21 44 20 68 -4z"/>
<path d="M1411 650 c-19 -11 -9 -45 14 -45 13 0 21 8 23 21 3 23 -17 37 -37
24z"/>
<path d="M1331 498 c-65 -7 -90 -18 -91 -38 0 -3 79 -5 175 -5 147 0 175 2
173 14 -6 28 -137 43 -257 29z"/>
<path d="M1240 377 c-64 -14 -74 -34 -36 -72 22 -22 28 -24 53 -13 40 17 291
17 321 -1 21 -11 27 -10 48 10 13 12 24 32 24 44 0 19 -9 24 -57 34 -71 14
-281 13 -353 -2z"/>
<path d="M1559 214 c-20 -7 -74 -18 -120 -24 -139 -17 -219 -39 -219 -59 0
-22 34 -38 99 -47 39 -5 54 -3 66 10 21 20 59 21 75 1 14 -17 47 -14 113 12
36 15 37 17 37 63 0 27 -3 51 -7 53 -5 2 -24 -2 -44 -9z"/>
</g>
</svg>
